<svg width="800" height="600" xmlns="http://www.w3.org/2000/svg" version="1.1">
 <g>
  <title>Layer 1</title>
  <g id="svg_1"/>
  <path id="svg_2" fill="#000000" d="m431.57471,363.25401l0,50.281l-133.06352,-50.281l0,50.281l-133.10924,-50.281l0,50.281l-133.09698,-50.281l0,163.27799l532.38905,0l0,-113.0051l-133.12039,-50.27289l0.00111,0l-0.00002,0l-0.00001,0zm-229.21695,142.62711l-133.07355,0l0,-56.868l133.07355,0l0,56.868zm162.43371,0l-132.57171,0l0,-56.868l132.56056,0l0,56.868l0.01115,0zm162.92663,0l-133.09698,0l0,-56.868l133.09698,0l0,56.868z" stroke="null"/>
  <path id="svg_3" fill="#000000" d="m332.94987,137.43497l-28.57667,0l-8.2572,196.52264l46.224,27.09238l-9.39013,-223.61502z" stroke="null"/>
  <path id="svg_4" fill="#000000" d="m201.55027,137.46801l-28.6833,0l-8.07698,200.27836l45.194,23.30362l-8.43372,-223.582l0,0.00002z" stroke="null"/>
  <path stroke="null" d="m472.52352,276.96868c0,8.64127 -3.09744,16.08605 -9.76886,21.84689c-6.67141,6.20399 -14.20058,9.08441 -23.49291,9.08441s-17.29802,-2.88042 -23.49291,-9.08441c-6.67141,-6.15967 -9.76886,-13.16131 -9.76886,-21.84689c0,-8.64127 3.09744,-16.08605 9.76886,-21.84689s14.20058,-9.08441 23.49291,-9.08441s17.29802,2.88042 23.49291,9.08441c6.19488,6.20399 9.76886,13.20563 9.76886,21.84689zm88.68214,19.80844c0.42888,2.88042 -0.90541,5.76084 -3.09744,7.84361s-4.8606,3.27925 -8.0057,3.27925l-23.49291,0c-3.09744,0 -5.33713,-0.84197 -7.52917,-2.48159s-3.09744,-4.12122 -3.52632,-6.60281c-2.66857,-24.72731 -13.29517,-45.77655 -31.92748,-63.10339s-41.2198,-27.20891 -67.8578,-29.6905c-3.09744,-0.39883 -5.33713,-1.2408 -7.10029,-3.27925s-2.66857,-4.12122 -2.66857,-7.00164l0,-21.84689c0,-3.27925 1.33428,-5.76084 3.52632,-7.44478c1.76316,-1.63962 4.43172,-2.88042 7.52917,-2.88042l0.90541,0c18.6323,1.2408 35.93033,5.76084 53.22835,12.76248c16.86914,7.44478 31.92748,16.92802 44.79377,29.29167c13.29517,11.96483 23.49291,25.96811 31.4986,41.65533c7.52917,16.08605 12.38977,32.1721 13.72405,49.49894zm88.68214,0.39883c0.42888,2.88042 -0.90541,5.36202 -3.09744,7.44478s-4.8606,3.27925 -8.0057,3.27925l-24.82719,0c-3.09744,0 -5.76601,-0.84197 -7.52917,-2.88042c-2.23969,-2.08277 -3.09744,-4.12122 -3.52632,-7.00164c-1.33428,-23.08769 -7.10029,-44.93458 -17.29802,-65.98382c-10.19773,-21.04924 -23.49291,-38.77491 -39.93317,-54.01899s-35.93033,-27.60774 -58.08895,-37.13528s-46.12806,-14.84525 -70.95525,-16.48488c-3.09744,0 -5.33713,-1.2408 -7.52917,-3.27925c-2.19204,-2.08277 -3.09744,-4.12122 -3.09744,-7.04595l0,-22.64455c0,-2.88042 1.33428,-5.36202 3.52632,-7.44478s4.43172,-2.88042 7.52917,-2.88042l0.42888,0c30.16432,1.2408 59.42323,7.84361 86.91898,19.3653s52.32294,27.20891 73.62381,47.41617c21.72975,19.80844 38.59889,42.89613 50.98866,68.46541c12.43742,25.56928 19.53771,52.77819 20.87199,80.82907z" class="st0" id="XMLID_7_"/>
 </g>

</svg>