<svg width="125" height="230" xmlns="http://www.w3.org/2000/svg" xml:space="preserve" version="1.1">

 <g>
  <title>Layer 1</title>
  <g id="svg_1">
   <path stroke="null" id="svg_2" d="m55.37967,2c-28.88255,0 -52.37968,26.83297 -52.37968,59.81641c0,19.92472 16.04917,51.37118 22.94892,63.96653c5.67637,10.36174 11.77009,20.21283 17.15773,27.7389c8.76187,12.23916 11.22244,12.23916 12.27358,12.23916c1.00863,0 3.37038,0 12.10189,-12.24294c5.40144,-7.57398 11.50013,-17.42318 17.17263,-27.73133c6.94723,-12.62561 23.10626,-44.13385 23.10626,-63.97031c0,-32.98344 -23.49768,-59.81641 -52.38133,-59.81641zm0.00055,108.13442c-22.84955,0 -41.43934,-21.22845 -41.43934,-47.3213c0,-26.09285 18.58979,-47.3213 41.43934,-47.3213c22.84955,0 41.43934,21.22845 41.43934,47.3213c0,26.09285 -18.58979,47.3213 -41.43934,47.3213z"/>
   <path stroke="null" id="svg_3" d="m89.44869,183.16592c-0.33278,0 -0.67451,0.04848 -1.01497,0.14351l-3.85702,1.07247l-4.00421,-9.85457c-1.13464,-2.79204 -4.48865,-5.06433 -7.47661,-5.06433l-37.48417,0c-2.98796,0 -6.34197,2.27165 -7.47661,5.06369l-3.99973,9.84229l-3.80838,-1.05954c-0.34046,-0.09438 -0.68219,-0.14351 -1.01497,-0.14351c-1.82324,0 -3.14603,1.40669 -3.14603,3.34476l0,2.29815c0,2.26195 1.8226,4.10305 4.0618,4.10305l0.43645,0l-0.64636,1.58963c-1.05401,2.59487 -1.91219,6.98625 -1.91219,9.79057l0,19.57985c0,2.26195 1.8226,4.10305 4.0618,4.10305l5.30588,0c2.23921,0 4.0618,-1.84111 4.0618,-4.10305l0,-4.88914l45.63913,0l0,4.88914c0,2.26195 1.8226,4.10305 4.0618,4.10305l5.30396,0c2.23921,0 4.0618,-1.84111 4.0618,-4.10305l0,-19.57985c0,-2.80433 -0.85818,-7.1957 -1.91219,-9.79057l-0.64636,-1.58963l0.49085,0c2.23921,0 4.0618,-1.84111 4.0618,-4.10305l0,-2.29815c-0.00128,-1.93807 -1.32407,-3.34476 -3.14731,-3.34476zm-62.40087,7.51699l6.05847,-14.90856c0.67835,-1.67044 2.69614,-3.0364 4.48353,-3.0364l33.5286,0c1.78676,0 3.8039,1.36661 4.48289,3.0364l6.05847,14.90856c0.67899,1.67044 -0.22846,3.0364 -2.01522,3.0364l-50.58088,0c-1.78676,0 -2.69422,-1.36596 -2.01586,-3.0364zm13.52548,18.85582c0,0.90245 -0.73147,1.64135 -1.62485,1.64135l-11.50898,0c-0.89402,0 -1.62485,-0.7389 -1.62485,-1.64135l0,-5.57956c0,-0.90245 0.73147,-1.64135 1.62485,-1.64135l11.50898,0c0.89338,0 1.62485,0.7389 1.62485,1.64135l0,5.57956zm42.21025,0c0,0.90245 -0.73147,1.64135 -1.62485,1.64135l-11.5077,0c-0.89338,0 -1.62485,-0.7389 -1.62485,-1.64135l0,-5.57956c0,-0.90245 0.73147,-1.64135 1.62485,-1.64135l11.5077,0c0.89338,0 1.62485,0.7389 1.62485,1.64135l0,5.57956z"/>
  </g>
  <g id="svg_4"/>
  <g id="svg_5"/>
  <g id="svg_6"/>
  <g id="svg_7"/>
  <g id="svg_8"/>
  <g id="svg_9"/>
  <g id="svg_10"/>
  <g id="svg_11"/>
  <g id="svg_12"/>
  <g id="svg_13"/>
  <g id="svg_14"/>
  <g id="svg_15"/>
  <g id="svg_16"/>
  <g id="svg_17"/>
  <g id="svg_18"/>
 </g>
</svg>