<?xml version="1.0"?>
<svg width="32px" height="32px" xmlns="http://www.w3.org/2000/svg" viewBox="0 0 32 32">
    <path style="line-height:normal;text-indent:0;text-align:start;text-decoration-line:none;text-decoration-style:solid;text-decoration-color:#000;text-transform:none;block-progression:tb;isolation:auto;mix-blend-mode:normal" d="M 6 4 C 4.9072751 4 4 4.9072751 4 6 C 4 7.0927249 4.9072751 8 6 8 C 7.0927249 8 8 7.0927249 8 6 C 8 4.9072751 7.0927249 4 6 4 z M 10 5 A 1 1 0 0 0 9 6 A 1 1 0 0 0 10 7 A 1 1 0 0 0 11 6 A 1 1 0 0 0 10 5 z M 13 5 A 1 1 0 0 0 12 6 A 1 1 0 0 0 13 7 A 1 1 0 0 0 14 6 A 1 1 0 0 0 13 5 z M 16 5 A 1 1 0 0 0 15 6 A 1 1 0 0 0 16 7 A 1 1 0 0 0 17 6 A 1 1 0 0 0 16 5 z M 19 5 A 1 1 0 0 0 18 6 A 1 1 0 0 0 19 7 A 1 1 0 0 0 20 6 A 1 1 0 0 0 19 5 z M 22 5 A 1 1 0 0 0 21 6 A 1 1 0 0 0 22 7 A 1 1 0 0 0 23 6 A 1 1 0 0 0 22 5 z M 25 5 A 1 1 0 0 0 24 6 A 1 1 0 0 0 25 7 A 1 1 0 0 0 26 6 A 1 1 0 0 0 25 5 z M 27 7 A 1 1 0 0 0 26 8 A 1 1 0 0 0 27 9 A 1 1 0 0 0 28 8 A 1 1 0 0 0 27 7 z M 16 10 C 14.346 10 13 11.346 13 13 C 13 14.249 14.614375 17.492031 15.109375 18.457031 L 16 20.189453 L 16.890625 18.457031 C 17.385625 17.492031 19 14.249 19 13 C 19 11.346 17.654 10 16 10 z M 27 10 A 1 1 0 0 0 26 11 A 1 1 0 0 0 27 12 A 1 1 0 0 0 28 11 A 1 1 0 0 0 27 10 z M 16 12 C 16.552 12 17 12.448 17 13 C 17 13.552 16.552 14 16 14 C 15.448 14 15 13.552 15 13 C 15 12.448 15.448 12 16 12 z M 27 13 A 1 1 0 0 0 26 14 A 1 1 0 0 0 27 15 A 1 1 0 0 0 28 14 A 1 1 0 0 0 27 13 z M 27 16 A 1 1 0 0 0 26 17 A 1 1 0 0 0 27 18 A 1 1 0 0 0 28 17 A 1 1 0 0 0 27 16 z M 7 18 A 1 1 0 0 0 6 19 A 1 1 0 0 0 7 20 A 1 1 0 0 0 8 19 A 1 1 0 0 0 7 18 z M 10 18 A 1 1 0 0 0 9 19 A 1 1 0 0 0 10 20 A 1 1 0 0 0 11 19 A 1 1 0 0 0 10 18 z M 13 18 A 1 1 0 0 0 12 19 A 1 1 0 0 0 13 20 A 1 1 0 0 0 14 19 A 1 1 0 0 0 13 18 z M 19 18 A 1 1 0 0 0 18 19 A 1 1 0 0 0 19 20 A 1 1 0 0 0 20 19 A 1 1 0 0 0 19 18 z M 22 18 A 1 1 0 0 0 21 19 A 1 1 0 0 0 22 20 A 1 1 0 0 0 23 19 A 1 1 0 0 0 22 18 z M 25 18 A 1 1 0 0 0 24 19 A 1 1 0 0 0 25 20 A 1 1 0 0 0 26 19 A 1 1 0 0 0 25 18 z M 5 20 A 1 1 0 0 0 4 21 A 1 1 0 0 0 5 22 A 1 1 0 0 0 6 21 A 1 1 0 0 0 5 20 z M 5 23 A 1 1 0 0 0 4 24 A 1 1 0 0 0 5 25 A 1 1 0 0 0 6 24 A 1 1 0 0 0 5 23 z M 26 24 C 24.907275 24 24 24.907275 24 26 C 24 27.092725 24.907275 28 26 28 C 27.092725 28 28 27.092725 28 26 C 28 24.907275 27.092725 24 26 24 z M 7 25 A 1 1 0 0 0 6 26 A 1 1 0 0 0 7 27 A 1 1 0 0 0 8 26 A 1 1 0 0 0 7 25 z M 10 25 A 1 1 0 0 0 9 26 A 1 1 0 0 0 10 27 A 1 1 0 0 0 11 26 A 1 1 0 0 0 10 25 z M 13 25 A 1 1 0 0 0 12 26 A 1 1 0 0 0 13 27 A 1 1 0 0 0 14 26 A 1 1 0 0 0 13 25 z M 16 25 A 1 1 0 0 0 15 26 A 1 1 0 0 0 16 27 A 1 1 0 0 0 17 26 A 1 1 0 0 0 16 25 z M 19 25 A 1 1 0 0 0 18 26 A 1 1 0 0 0 19 27 A 1 1 0 0 0 20 26 A 1 1 0 0 0 19 25 z M 22 25 A 1 1 0 0 0 21 26 A 1 1 0 0 0 22 27 A 1 1 0 0 0 23 26 A 1 1 0 0 0 22 25 z"/>
</svg>
