<svg xmlns="http://www.w3.org/2000/svg" xml:space="preserve" width="100px" height="100px" version="1.1" style="shape-rendering:geometricPrecision; text-rendering:geometricPrecision; image-rendering:optimizeQuality; fill-rule:evenodd; clip-rule:evenodd" viewBox="0 0 360 360" xmlns:xlink="http://www.w3.org/1999/xlink">
	<defs>
		<style type="text/css">
			<![CDATA[ .fil0 {fill:#D9241C} ]]>
		</style>
	</defs>
	<g id="honda">
		<path class="fil0" d="M200 260c-7,0 -52,1 -57,0 -4,0 -9,0 -13,-1 -19,-2 -47,0 -61,-22 -16,-26 -21,-126 -12,-153 4,-12 11,-19 23,-24 32,-13 165,-12 197,0 11,4 19,11 23,23 7,18 5,56 4,78 0,3 0,3 0,6l-3 26c-6,40 -11,58 -48,64 -15,2 -36,3 -53,3zm-48 -218l49 0c37,1 71,4 84,9 28,10 34,32 35,58l0 31c0,27 -6,86 -21,106 -10,14 -27,18 -43,21 -9,2 -20,2 -29,3 -14,1 -84,1 -96,0 -24,-3 -56,-2 -72,-24 -9,-12 -13,-30 -16,-48 -5,-35 -5,-47 -5,-78l0 -5 0 -2c0,-35 10,-53 35,-63 15,-5 45,-8 79,-8z" />
		<path class="fil0" d="M107 252c7,1 21,2 29,2 1,-3 2,-7 3,-10 2,-8 5,-20 8,-27 3,-7 4,-11 11,-14 9,-4 34,-3 42,0 6,3 8,7 11,13 2,5 4,12 6,18l4 20c10,0 21,-2 30,-2 0,-15 5,-61 5,-78 1,-5 1,-9 1,-13l6 -93c1,-9 2,-6 -13,-7 -3,0 -3,-1 -7,-1 0,6 -16,73 -17,77 -5,20 -9,45 -35,46 -2,1 -4,0 -6,1 -13,1 -31,0 -40,-12 -11,-15 -23,-77 -28,-101 -1,-3 -2,-8 -2,-11l-13 1c-8,1 -8,-2 -7,13l2 33c0,3 1,3 1,6 0,2 0,5 0,7l4 65c2,12 2,32 3,40l2 27z" />
		<path class="fil0" d="M40 286c8,2 6,-3 6,20 0,3 -4,2 -6,2l0 6 24 0c2,0 2,-1 2,-3 0,-3 -4,-3 -7,-3l0 -8 19 0c0,8 1,8 -6,8 0,7 -3,6 26,6l0 -6c-9,0 -7,1 -7,-19 0,-3 4,-2 7,-3l0 -4 -26 0 0 4c7,1 6,1 6,8l-19 0c0,-9 0,-6 7,-8l0 -4 -26 0 0 4z" />
		<path class="fil0" d="M123 287c6,0 13,0 13,11 0,11 -8,10 -13,10 -13,0 -13,-21 0,-21zm6 27l-8 0c-7,0 -12,-2 -15,-3 -7,-5 -7,-9 -7,-15 0,-11 13,-16 24,-16 13,0 26,3 28,16 1,13 -10,17 -22,18z" />
		<path class="fil0" d="M236 307l-8 0 0 -19c14,0 19,-2 19,10 0,7 -4,9 -11,9zm-26 -21c7,2 6,-3 6,20 0,3 -4,2 -6,2l0 6c12,0 37,1 46,-4 7,-5 9,-16 1,-24 -2,-2 -7,-4 -12,-4l-35 0 0 4z" />
		<path class="fil0" d="M152 286c2,0 4,1 5,1l0 21 -5 0 0 6 20 0 0 -6c-8,0 -6,2 -6,-17l3 3c17,23 10,20 32,20 0,-32 -2,-26 7,-28l0 -4 -21 0 0 4c2,0 5,1 6,1l0 17 -9 -12c-10,-13 -4,-10 -32,-10l0 4z" />
		<path class="fil0" d="M286 289c1,3 4,6 5,9l-11 0c1,-3 4,-8 6,-9zm-17 -3c9,2 10,-1 4,8l-7 11c-3,7 -7,0 -7,6 0,2 0,3 2,3l19 0 0 -6c-7,0 -3,1 -5,0 0,-6 4,-4 19,-4 3,0 3,2 3,4l-6 0 0 6 28 0 0 -6c-7,0 -7,-2 -13,-12 -12,-18 -4,-14 -37,-14l0 4z" />
	</g>
</svg>
