<svg width="600" height="500" viewBox="0 0 600 512" xmlns="http://www.w3.org/2000/svg" version="1.1">
 <g>
  <title>Layer 1</title>
  <g id="svg_1"/>
<path d="M375.327 270.254v61.983l-119.317-61.983v61.983l-119.358-61.983v61.983l-119.347-61.983v201.278h477.389v-139.305l-119.368-61.973zM169.79 446.075h-119.326v-70.103h119.326v70.103zM315.443 446.075h-118.876v-70.103h118.866v70.103zM461.538 446.075h-119.347v-70.103h119.347v70.103z" fill="#000000" />
	<path d="M330.731 77.435h-32.286l-9.329 200.038 52.224 27.577z" fill="#000000" />
	<path d="M212.244 40.468h-33.126l-9.328 237.005 52.194 27.577z" fill="#000000" />
  <path stroke="null" d="m472.52352,276.96868c0,8.64127 -3.09744,16.08605 -9.76886,21.84689c-6.67141,6.20399 -14.20058,9.08441 -23.49291,9.08441s-17.29802,-2.88042 -23.49291,-9.08441c-6.67141,-6.15967 -9.76886,-13.16131 -9.76886,-21.84689c0,-8.64127 3.09744,-16.08605 9.76886,-21.84689s14.20058,-9.08441 23.49291,-9.08441s17.29802,2.88042 23.49291,9.08441c6.19488,6.20399 9.76886,13.20563 9.76886,21.84689zm88.68214,19.80844c0.42888,2.88042 -0.90541,5.76084 -3.09744,7.84361s-4.8606,3.27925 -8.0057,3.27925l-23.49291,0c-3.09744,0 -5.33713,-0.84197 -7.52917,-2.48159s-3.09744,-4.12122 -3.52632,-6.60281c-2.66857,-24.72731 -13.29517,-45.77655 -31.92748,-63.10339s-41.2198,-27.20891 -67.8578,-29.6905c-3.09744,-0.39883 -5.33713,-1.2408 -7.10029,-3.27925s-2.66857,-4.12122 -2.66857,-7.00164l0,-21.84689c0,-3.27925 1.33428,-5.76084 3.52632,-7.44478c1.76316,-1.63962 4.43172,-2.88042 7.52917,-2.88042l0.90541,0c18.6323,1.2408 35.93033,5.76084 53.22835,12.76248c16.86914,7.44478 31.92748,16.92802 44.79377,29.29167c13.29517,11.96483 23.49291,25.96811 31.4986,41.65533c7.52917,16.08605 12.38977,32.1721 13.72405,49.49894zm88.68214,0.39883c0.42888,2.88042 -0.90541,5.36202 -3.09744,7.44478s-4.8606,3.27925 -8.0057,3.27925l-24.82719,0c-3.09744,0 -5.76601,-0.84197 -7.52917,-2.88042c-2.23969,-2.08277 -3.09744,-4.12122 -3.52632,-7.00164c-1.33428,-23.08769 -7.10029,-44.93458 -17.29802,-65.98382c-10.19773,-21.04924 -23.49291,-38.77491 -39.93317,-54.01899s-35.93033,-27.60774 -58.08895,-37.13528s-46.12806,-14.84525 -70.95525,-16.48488c-3.09744,0 -5.33713,-1.2408 -7.52917,-3.27925c-2.19204,-2.08277 -3.09744,-4.12122 -3.09744,-7.04595l0,-22.64455c0,-2.88042 1.33428,-5.36202 3.52632,-7.44478s4.43172,-2.88042 7.52917,-2.88042l0.42888,0c30.16432,1.2408 59.42323,7.84361 86.91898,19.3653s52.32294,27.20891 73.62381,47.41617c21.72975,19.80844 38.59889,42.89613 50.98866,68.46541c12.43742,25.56928 19.53771,52.77819 20.87199,80.82907z" class="st0" id="XMLID_7_"/>
 </g>

</svg>