<?xml version="1.0" standalone="no"?>
<!DOCTYPE svg PUBLIC "-//W3C//DTD SVG 20010904//EN"
 "http://www.w3.org/TR/2001/REC-SVG-20010904/DTD/svg10.dtd">
<svg version="1.0" xmlns="http://www.w3.org/2000/svg"
 width="28.000000pt" height="30.000000pt" viewBox="0 0 28.000000 30.000000"
 preserveAspectRatio="xMidYMid meet">

<g transform="translate(0.000000,30.000000) scale(0.100000,-0.100000)"
fill="#000000" stroke="none">
<path d="M65 275 c-67 -26 -64 -17 -51 -146 l7 -66 62 -32 62 -33 56 31 c62
34 62 33 74 161 l7 65 -69 23 c-81 26 -72 26 -148 -3z m98 -52 c8 -21 27 -64
41 -96 24 -54 25 -57 7 -57 -11 0 -23 9 -26 20 -9 29 -81 29 -90 0 -3 -11 -15
-20 -26 -20 -18 0 -17 3 7 58 14 31 33 74 41 95 8 20 19 37 23 37 4 0 15 -17
23 -37z"/>
<path d="M130 181 c0 -5 -3 -16 -6 -25 -4 -12 0 -16 16 -16 16 0 20 4 16 16
-3 9 -6 20 -6 25 0 5 -4 9 -10 9 -5 0 -10 -4 -10 -9z"/>
</g>
</svg>
