<?xml version="1.0" encoding="utf-8"?>
<!-- Svg Vector Icons : http://www.onlinewebfonts.com/icon -->
<!DOCTYPE svg PUBLIC "-//W3C//DTD SVG 1.1//EN" "http://www.w3.org/Graphics/SVG/1.1/DTD/svg11.dtd">
<svg width="32px" height="32px" version="1.1" xmlns="http://www.w3.org/2000/svg" xmlns:xlink="http://www.w3.org/1999/xlink" viewBox="0 0 1000 1000" enable-background="new 0 0 1000 1000" xml:space="preserve">
<metadata> Svg Vector Icons : http://www.onlinewebfonts.com/icon </metadata>
<g><g><path d="M696.8,127.7c-156.9-156.9-412.2-156.9-569.2,0c-156.9,156.9-156.9,412.2,0,569.1c151.5,151.5,394.8,156.7,552.7,15.6l31.9,31.9c-7.9,20.3-3.8,44.3,12.6,60.7l168.4,168.4c22.1,22.1,58,22.1,80.2,0c22.1-22.1,22.1-58,0-80.2L805,724.9c-16.4-16.4-40.4-20.6-60.7-12.6l-31.9-31.9C853.6,522.5,848.4,279.2,696.8,127.7z M175.8,648.8c-130.4-130.4-130.4-342.6,0-473c130.4-130.4,342.6-130.4,473,0c130.4,130.4,130.4,342.6,0,473C518.4,779.2,306.2,779.2,175.8,648.8z"/><path d="M255.2,252.3c57-56.9,123.1-98.3,192.8-124.1c-78.9-4.5-163.3,26.2-228.1,91c-65.7,65.7-96.3,151.6-90.7,231.5C154.7,379,196.8,310.8,255.2,252.3z"/></g><g></g><g></g><g></g><g></g><g></g><g></g><g></g><g></g><g></g><g></g><g></g><g></g><g></g><g></g><g></g></g>
</svg>