<?xml version="1.0" encoding="UTF-8"?>
<svg width="500pt" height="500pt" version="1.1" viewBox="145 155 500 500" xmlns="http://www.w3.org/2000/svg">
 <defs>
  <clipPath id="a">
   <path d="m207 139.21h338v473.58h-338z"/>
  </clipPath>
 </defs>
 <g clip-path="url(#a)">
  <path d="m314.72 172.64h17.77c2.0742-7.7852 6.1562-14.707 11.676-20.223 8.1328-8.168 19.395-13.207 31.836-13.207 12.41 0 23.668 5.0391 31.836 13.207 5.5195 5.5195 9.6328 12.441 11.707 20.223h17.734c6.4102 0 11.613 5.1992 11.613 11.613v10.688h83.801c6.4102 0 11.613 5.1992 11.613 11.613v394.63c0 6.4102-5.1992 11.613-11.613 11.613h-313.38c-6.4102 0-11.613-5.1992-11.613-11.613v-394.63c0-6.4102 5.1992-11.613 11.613-11.613h83.801v-10.688c0-6.4102 5.1992-11.613 11.613-11.613zm-45.395 355.04c-4.8789-4.1133-5.5195-11.387-1.4023-16.301 4.1133-4.8789 11.387-5.4883 16.27-1.4023l5.0078 4.2422 11.195-13.238c4.1484-4.8789 11.453-5.4883 16.332-1.3398 4.8789 4.1133 5.4883 11.422 1.3398 16.301l-18.629 22.043-0.03125-0.03125c-4.1133 4.8477-11.355 5.4883-16.238 1.3711zm0-69.668c-4.8789-4.1133-5.5195-11.387-1.4023-16.27 4.1133-4.8789 11.387-5.5195 16.27-1.4023l5.0078 4.2109 11.195-13.238c4.1484-4.8789 11.453-5.4883 16.332-1.3398 4.8789 4.1133 5.4883 11.453 1.3398 16.332l-18.629 22.012-0.03125-0.03125c-4.1133 4.8789-11.355 5.4883-16.238 1.3711zm0-139.3c-4.8789-4.082-5.5195-11.387-1.4023-16.27 4.1133-4.8789 11.387-5.5195 16.27-1.4023l5.0078 4.2109 11.195-13.207c4.1484-4.8789 11.453-5.4883 16.332-1.3711 4.8789 4.1484 5.4883 11.453 1.3398 16.332l-18.629 22.012h-0.03125c-4.1133 4.8477-11.355 5.4531-16.238 1.3711zm0 69.668c-4.8789-4.1133-5.5195-11.387-1.4023-16.301 4.1133-4.8789 11.387-5.4883 16.27-1.4023l5.0078 4.2422 11.195-13.238c4.1484-4.8789 11.453-5.4883 16.332-1.3398 4.8789 4.1133 5.4883 11.422 1.3398 16.301l-18.629 22.043-0.03125-0.03125c-4.1133 4.8477-11.355 5.4883-16.238 1.3711zm83.355 142.72c-6.4102 0-11.613-5.1992-11.613-11.613 0-6.4102 5.1992-11.613 11.613-11.613h122.56c6.4102 0 11.613 5.1992 11.613 11.613 0 6.4102-5.1992 11.613-11.613 11.613zm0-208.97c-6.4102 0-11.613-5.168-11.613-11.578s5.1992-11.613 11.613-11.613h122.56c6.4102 0 11.613 5.1992 11.613 11.613 0 6.4102-5.1992 11.578-11.613 11.578zm0 69.668c-6.4102 0-11.613-5.1992-11.613-11.613 0-6.4102 5.1992-11.613 11.613-11.613h122.56c6.4102 0 11.613 5.1992 11.613 11.613 0 6.4102-5.1992 11.613-11.613 11.613zm0 69.637c-6.4102 0-11.613-5.1992-11.613-11.613 0-6.4102 5.1992-11.613 11.613-11.613h122.56c6.4102 0 11.613 5.1992 11.613 11.613 0 6.4102-5.1992 11.613-11.613 11.613zm96.211-243.3v10.688c0 6.4102-5.1992 11.613-11.613 11.613h-122.56c-6.4102 0-11.613-5.1992-11.613-11.613v-10.688h-72.188v371.44h290.19v-371.44zm-106.32-22.266h-16.238v21.34h99.367v-21.34h-16.27c-6.4102 0-11.613-5.1992-11.613-11.613 0-6.0273-2.4258-11.484-6.3789-15.438v-0.03125c-3.9219-3.9219-9.3789-6.3477-15.438-6.3477-6.0273 0-11.484 2.4258-15.438 6.3789-3.9219 3.957-6.3789 9.4102-6.3789 15.438 0 6.4102-5.1992 11.613-11.613 11.613z"/>
 </g>
</svg>
